# AST/ASF file generated using VICON BodyLanguage
# -----------------------------------------------
:version 1.10
:name VICON
:units
  mass 1.0
  length 0.45
  angle deg
:documentation
   .ast/.asf automatically generated from VICON data using
   VICON BodyBuilder and BodyLanguage model FoxedUp or BRILLIANT.MOD
:root
   order TX TY TZ RX RY RZ
   axis XYZ
   position 0 0 0  
   orientation 0 0 0 
:bonedata
  begin
     id 1 
     name lhipjoint
     direction 0.54267 -0.795011 0.271047 
     length 2.39899 
     axis 0 0 0  XYZ
  end
  begin
     id 2 
     name lfemur
     direction 0.34202 -0.939693 0  
     length 7.49701  
     axis 0 0 20  XYZ
    dof rx ry rz
    limits (-160.0 20.0)
           (-70.0 70.0)
           (-60.0 70.0)
  end
  begin
     id 3 
     name ltibia
     direction 0.34202 -0.939693 0   
     length 8.1668   
     axis 0 0 20   XYZ
    dof rx
    limits (-10.0 170.0)
  end
  begin
     id 4 
     name lfoot
     direction 0.0736283 -0.202292 0.976554   
     length 2.13544   
     axis -90 7.62852e-016 20   XYZ
    dof rx rz
    limits (-45.0 90.0)
           (-70.0 20.0)
  end
  begin
     id 5 
     name ltoes
     direction 1.53557e-011 -4.22024e-011 1   
     length 1.07411   
     axis -90 7.62852e-016 20   XYZ
    dof rx
    limits (-90.0 20.0)
  end
  begin
     id 6 
     name rhipjoint
     direction -0.538061 -0.797813 0.272002   
     length 2.39057  
     axis 0 0 0  XYZ 
  end
  begin
     id 7 
     name rfemur
     direction -0.34202 -0.939693 0   
     length 7.50152   
     axis 0 0 -20   XYZ
    dof rx ry rz
    limits (-160.0 20.0)
           (-70.0 70.0)
           (-70.0 60.0)
  end
  begin
     id 8 
     name rtibia
     direction -0.34202 -0.939693 0   
     length 8.05793   
     axis 0 0 -20   XYZ
    dof rx
    limits (-10.0 170.0)
 end
 begin
     id 9 
     name rfoot
     direction -0.0765195 -0.210236 0.974652   
     length 2.28698  
     axis -90 -7.62852e-016 -20   XYZ
    dof rx rz
    limits (-45.0 90.0)
           (-20.0 70.0)
  end
  begin
     id 10 
     name rtoes
     direction -1.53542e-011 -4.21847e-011 1   
     length 1.14762   
     axis -90 -7.62852e-016 -20   XYZ
    dof rx
    limits (-90.0 20.0)
  end
  begin
     id 11 
     name lowerback
     direction -0.0217239 0.996592 -0.0795765   
     length 2.08176   
     axis 0 0 0   XYZ
    dof rx ry rz
    limits (-20.0 45.0)
           (-30.0 30.0)
           (-30.0 30.0)
  end
  begin
     id 12 
     name upperback
     direction -0.00563773 0.999651 -0.0258155   
     length 2.08898   
     axis 0 0 0   XYZ
    dof rx ry rz
    limits (-20.0 45.0)
           (-30.0 30.0)
           (-30.0 30.0)
  end
  begin
     id 13 
     name thorax
     direction 0.0032706 0.999923 0.0119599   
     length 2.0968   
     axis 0 0 0   XYZ
    dof rx ry rz
    limits (-20.0 45.0)
           (-30.0 30.0)
           (-30.0 30.0)
  end
  begin
     id 14 
     name lowerneck
     direction -0.0285886 0.99568 0.0883427   
     length 1.81272   
     axis 0 0 0   XYZ
    dof rx ry rz
    limits (-20.0 45.0)
           (-30.0 30.0)
           (-30.0 30.0)
  end
  begin
     id 15 
     name upperneck
     direction 0.0807535 0.97985 -0.18268   
     length 1.82518   
     axis 0 0 0   XYZ
    dof rx ry rz
    limits (-20.0 45.0)
           (-30.0 30.0)
           (-30.0 30.0)
  end
  begin
     id 16
     name head
     direction 0.0236605 0.997053 -0.0729767  
     length 1.84443  
     axis 0 0 0   XYZ
    dof rx ry rz
    limits (-20.0 45.0)
           (-30.0 30.0)
           (-30.0 30.0)
  end
  begin
     id 17 
     name lclavicle
     direction 0.918986 0.39378 -0.0200683  
     length 3.27822  
     axis 0 0 0   XYZ
    dof ry rz
    limits (-20.0 10.0)
           (0.0 20.0)
  end
  begin
     id 18 
     name lhumerus
     direction 1 -4.4897e-011 2.09544e-027   
     length 5.5568   
     axis 180 -30 -90   XYZ
    dof rx ry rz
    limits (-60.0 90.0)
           (-90.0 90.0)
           (-90.0 90.0)
  end
  begin
     id 19
     name lradius
     direction 1 -4.48957e-011 -1.27696e-026   
     length 3.63979   
     axis 180 -30 -90   XYZ
    dof rx
    limits (-10.0 170.0)
  end
  begin
     id 20
     name lwrist
     direction 1 -4.49001e-011 -1.49001e-026   
     length 1.8199   
     axis 9.0955e-015 90 90   XYZ
    dof ry
    limits (-180.0 0.0)
 end
  begin
     id 21 
     name lhand
     direction 1 -4.48709e-011 -2.9758e-026   
     length 0.569419   
     axis 1.90115e-014 90 90   XYZ
    dof rx rz
    limits (-90.0 90.0)
           (-45.0 45.0)
  end
  begin
     id 22 
     name lfingers
     direction 1 -4.49175e-011 -5.96505e-026   
     length 0.45908   
     axis 3.80223e-014 90 90   XYZ
    dof rx
    limits (0.0 90.0)
  end
  begin
     id 23
     name lthumb
     direction 0.707107 -6.34864e-011 0.707107   
     length 0.65915   
     axis -90 45 -3.84942e-014   XYZ
    dof rx rz
    limits (-45.0 45.0)
           (-45.0 45.0)
  end
  begin
     id 24 
     name rclavicle
     direction -0.911913 0.396426 -0.106115   
     length 3.46301  
     axis 0 0 0   XYZ 
    dof ry rz
    limits (-10.0 20.0)
           (-20.0 0.0)
  end
  begin
     id 25 
     name rhumerus
     direction -1 -4.48965e-011 7.78516e-028  
     length 5.34339   
     axis 180 30 90   XYZ
    dof rx ry rz
    limits (-90.0 60.0)
           (-90.0 90.0)
           (-90.0 90.0)
  end
  begin
     id 26 
     name rradius
     direction -1 -4.48948e-011 -5.79823e-027   
     length 3.65101   
     axis 180 30 90   XYZ
    dof rx
    limits (-10.0 170.0)
  end
  begin
     id 27 
     name rwrist
     direction -1 -4.48995e-011 -1.48996e-026   
     length 1.8255   
     axis 9.0955e-015 -90 -90   XYZ
    dof ry
    limits (-180.0 0.0)
  end
  begin
     id 28
     name rhand
     direction -1 -4.48957e-011 -2.97937e-026   
     length 0.694249   
     axis 1.90115e-014 -90 -90   XYZ
    dof rx rz
    limits (-90.0 90.0)
           (-45.0 45.0)
  end
  begin
     id 29
     name rfingers
     direction -1 -4.4898e-011 -5.95943e-026   
     length 0.559721   
     axis 3.80223e-014 -90 -90   XYZ
    dof rx
    limits (0.0 90.0)
  end
  begin
     id 30
     name rthumb
     direction -0.707107 -6.34969e-011 0.707107   
     length 0.803651   
     axis -90 -45 3.84942e-014   XYZ
    dof rx rz
    limits (-45.0 45.0)
           (-45.0 45.0)
  end
:hierarchy
  begin
    root lhipjoint rhipjoint lowerback
    lhipjoint lfemur
    lfemur ltibia
    ltibia lfoot
    lfoot ltoes
    rhipjoint rfemur
    rfemur rtibia
    rtibia rfoot
    rfoot rtoes
    lowerback upperback
    upperback thorax
    thorax lowerneck lclavicle rclavicle
    lowerneck upperneck
    upperneck head
    lclavicle lhumerus
    lhumerus lradius
    lradius lwrist
    lwrist lhand lthumb
    lhand lfingers
    rclavicle rhumerus
    rhumerus rradius
    rradius rwrist
    rwrist rhand rthumb
    rhand rfingers
  end

#!OML:ASF H:\Terrain\Walking\May29\JustinRory\rory.ASF
:FULLY-SPECIFIED
:DEGREES
270
root 16.0265 18.3146 -14.776 -3.30996 -48.3591 5.82313
lowerback 2.48 0.474512 -5.82317
upperback 1.29664 0.498196 -0.0452402
thorax -0.104572 0.220077 3.20616
lowerneck -10.8325 1.93083 -1.08198
upperneck 9.0345 2.44536 2.77527
head 4.42562 1.33198 1.19888
rclavicle -3.86263e-014 -8.74653e-015
rhumerus -22.4107 -5.08421 -85.4193
rradius 18.827
rwrist 23.0729
rhand -25.0793 43.8713
rfingers 7.12502
rthumb 1.43501 13.8964
lclavicle -3.86263e-014 -8.74653e-015
lhumerus -40.7954 32.5466 67.5172
lradius 37.5415
lwrist 169.607
lhand -24.978 -21.2885
lfingers 7.12502
lthumb 1.53284 8.68578
rfemur -18.9621 2.43509 13.2421
rtibia 32.7403
rfoot -11.7571 -11.5199
rtoes 8.40358
lfemur -6.73635 -7.28601 -23.5988
ltibia 21.3399
lfoot -14.7887 3.14905
ltoes -0.670316
271
root 16.0536 18.3148 -14.8289 -2.83009 -49.111 5.28893
lowerback 2.35542 0.474721 -5.18384
upperback 1.09432 0.515397 -0.0707506
thorax -0.240353 0.239575 2.82063
lowerneck -10.5427 2.12891 -0.473559
upperneck 9.35864 2.63702 2.53775
head 4.48541 1.43193 1.03985
rclavicle 3.8117e-014 -3.57812e-015
rhumerus -22.8969 -12.0742 -83.1978
rradius 16.6412
rwrist 29.356
rhand -24.9944 43.5823
rfingers 7.12502
rthumb 1.51693 13.608
lclavicle 3.8117e-014 -3.57812e-015
lhumerus -40.8554 32.0344 67.4641
lradius 37.305
lwrist 168.335
lhand -23.1211 -20.3184
lfingers 7.12502
lthumb 3.32619 9.63544
rfemur -18.3319 2.1283 13.6648
rtibia 32.7348
rfoot -11.827 -11.8795
rtoes 8.46795
lfemur -7.123 -6.9623 -23.038
ltibia 21.6079
lfoot -14.8598 3.46865
ltoes 0.292966
272
root 16.0748 18.3069 -14.8721 -3.04507 -49.8789 5.59061
lowerback 2.03879 0.451455 -5.16671
upperback 1.05444 0.502451 -0.183282
thorax -0.101754 0.230695 2.69742
lowerneck -10.5382 2.36401 0.251755
upperneck 9.79898 2.89089 2.04276
head 4.63499 1.55366 0.792183
rclavicle -2.34566e-014 3.97569e-016
rhumerus -23.665 -20.2626 -80.1653
rradius 14.5177
rwrist 36.6166
rhand -25.1745 43.3719
rfingers 7.12502
rthumb 1.343 13.3964
lclavicle -2.34566e-014 3.97569e-016
lhumerus -41.0361 32.2701 67.0005
lradius 37.1452
lwrist 168.224
lhand -23.4143 -19.6714
lfingers 7.12502
lthumb 3.04297 10.2867
rfemur -17.6196 1.9831 13.4653
rtibia 32.731
rfoot -11.7354 -12.6054
rtoes 6.67575
lfemur -7.31656 -6.67617 -23.1378
ltibia 21.7732
lfoot -14.9392 4.01307
ltoes 0.833185
273
root 16.0963 18.3031 -14.9139 -3.28146 -50.6708 6.01066
lowerback 1.54387 0.370583 -5.27472
upperback 1.02391 0.424026 -0.0299195
thorax 0.149342 0.185471 2.92053
lowerneck -10.4772 2.60727 0.167301
upperneck 10.224 3.26495 1.71834
head 4.75621 1.71425 0.735448
rclavicle 1.0958e-013 4.37326e-015
rhumerus -24.9819 -27.266 -76.4878
rradius 12.9583
rwrist 42.5495
rhand -25.3252 43.0556
rfingers 7.12502
rthumb 1.19745 13.0793
lclavicle 1.0958e-013 4.37326e-015
lhumerus -41.3207 32.3995 67.1765
lradius 37.0958
lwrist 168.802
lhand -23.698 -19.1992
lfingers 7.12502
lthumb 2.76899 10.7625
rfemur -17.0156 1.83946 13.1335
rtibia 32.7295
rfoot -12.1546 -13.0936
rtoes 7.34845
lfemur -7.52482 -6.5436 -23.3135
ltibia 21.804
lfoot -15.0488 4.64312
ltoes 0.597558
274
root 16.1199 18.2998 -14.9562 -3.53742 -51.342 6.34976
lowerback 1.28372 0.26954 -5.25352
upperback 0.957825 0.304576 0.0969143
thorax 0.237418 0.125001 3.04211
lowerneck -10.2169 2.91831 0.0176386
upperneck 10.4179 3.71921 1.60716
head 4.7679 1.92333 0.754851
rclavicle 6.28408e-014 1.03368e-014
rhumerus -27.0622 -34.1945 -72.3094
rradius 11.8651
rwrist 47.8754
rhand -25.7175 43.2802
rfingers 7.12502
rthumb 0.818628 13.302
lclavicle 6.28408e-014 1.03368e-014
lhumerus -41.466 31.8747 67.6464
lradius 37.0442
lwrist 170.131
lhand -23.1661 -19.9503
lfingers 7.12502
lthumb 3.28273 10.0041
rfemur -16.3086 1.53513 12.8275
rtibia 32.7552
rfoot -12.9362 -13.5449
rtoes 10.1754
lfemur -7.59979 -6.37387 -23.4014
ltibia 21.7192
lfoot -15.1422 4.90422
ltoes 1.7044
275
root 16.1371 18.2912 -14.9986 -4.49117 -51.9983 7.3231
lowerback 1.28204 0.295731 -5.60945
upperback 0.847365 0.333068 0.143503
thorax 0.120345 0.143159 3.2895
lowerneck -9.97869 3.13912 -0.313974
upperneck 10.8377 4.06442 1.59461
head 4.84789 2.07703 0.829183
rclavicle -1.16488e-013 0
rhumerus -30.8114 -42.3069 -66.1203
rradius 10.9576
rwrist 54.2716
rhand -26.6117 43.8643
rfingers 7.12502
rthumb -0.0450477 13.8846
lclavicle -1.16488e-013 0
lhumerus -41.8519 31.5632 68.0813
lradius 37.2499
lwrist 170.765
lhand -22.4243 -21.3629
lfingers 7.12502
lthumb 3.999 8.57928
rfemur -15.3434 0.975697 12.0878
rtibia 32.6989
rfoot -13.4179 -14.0906
rtoes 11.8761
lfemur -7.45262 -5.91326 -23.9254
ltibia 21.682
lfoot -15.1495 5.07578
ltoes 3.0101
276
root 16.1534 18.2845 -15.0458 -5.26347 -52.9104 8.19274
lowerback 1.13936 0.422967 -5.8425
upperback 0.718089 0.506199 0.172405
thorax 0.048228 0.233939 3.44847
lowerneck -9.86394 3.25196 -0.627483
upperneck 11.4176 4.25256 1.6353
head 4.99817 2.15611 0.910876
rclavicle -4.96962e-015 -1.19271e-015
rhumerus -35.5994 -48.7365 -59.3042
rradius 10.4215
rwrist 58.8216
rhand -27.4426 43.6747
rfingers 7.12502
rthumb -0.84754 13.6966
lclavicle -4.96962e-015 -1.19271e-015
lhumerus -42.5402 31.9433 68.0442
lradius 37.6983
lwrist 170.129
lhand -22.4528 -20.7954
lfingers 7.12502
lthumb 3.97155 9.14733
rfemur -14.5122 0.587129 11.4553
rtibia 32.489
rfoot -13.6952 -14.6047
rtoes 12.6747
lfemur -7.49897 -5.25011 -24.3406
ltibia 21.7452
lfoot -15.0075 5.52597
ltoes 2.59861
277
root 16.1715 18.2771 -15.0956 -5.37 -53.9814 8.37436
lowerback 0.808116 0.362094 -5.62078
upperback 0.632862 0.44645 0.150201
thorax 0.154026 0.203876 3.30346
lowerneck -9.66706 3.54011 -0.34881
upperneck 11.7157 4.59625 1.62216
head 5.06026 2.33338 0.886203
rclavicle -9.9442e-014 7.55382e-015
rhumerus -38.142 -50.5159 -56.3768
rradius 10.2766
rwrist 57.9229
rhand -28.3058 42.4453
rfingers 7.12502
rthumb -1.68122 12.4722
lclavicle -9.9442e-014 7.55382e-015
lhumerus -43.2504 32.1987 67.5183
lradius 38.1741
lwrist 169.972
lhand -22.7024 -20.0705
lfingers 7.12502
lthumb 3.7305 9.87662
rfemur -13.8444 0.348361 11.3522
rtibia 32.1839
rfoot -13.3121 -15.3553
rtoes 10.3601
lfemur -7.73073 -4.68224 -24.2399
ltibia 21.8636
lfoot -15.071 6.0759
ltoes 1.65937
278
root 16.1907 18.2726 -15.1443 -5.11674 -55.0913 8.17461
lowerback 0.497527 1.3319 -4.72447
upperback 0.022993 1.75042 0.599167
thorax -0.415786 0.885072 3.24712
lowerneck -7.59124 2.68878 -2.72749
upperneck 11.5909 3.62392 2.53251
head 4.61992 1.80322 1.44551
rclavicle 1.5863e-013 3.18055e-015
rhumerus -40.1295 -47.6621 -54.2574
rradius 11.0041
rwrist 49.5481
rhand -29.5613 40.0598
rfingers 7.12502
rthumb -2.8938 10.0997
lclavicle 1.5863e-013 3.18055e-015
lhumerus -43.7379 29.6282 69.6277
lradius 38.3435
lwrist 170.619
lhand -22.849 -21.3631
lfingers 7.12502
lthumb 3.58894 8.58643
rfemur -13.243 -0.0172461 11.4955
rtibia 31.826
rfoot -12.9372 -15.9728
rtoes 8.45873
lfemur -8.00879 -4.47149 -23.8813
ltibia 22.0094
lfoot -15.3855 6.8294
ltoes 1.80664
279
root 16.2112 18.2789 -15.1862 -4.92153 -56.0595 7.99239
lowerback 0.210267 1.30115 -4.28266
upperback -0.054388 1.72436 0.694105
thorax -0.321656 0.87073 3.10323
lowerneck -7.89785 2.8871 -2.34514
upperneck 12.3517 3.86776 2.31342
head 4.91138 1.92043 1.34719
rclavicle 8.91673e-014 1.82882e-014
rhumerus -40.467 -46.4552 -54.4439
rradius 11.4205
rwrist 44.4209
rhand -30.7601 38.5114
rfingers 7.12502
rthumb -4.05151 8.57022
lclavicle 8.91673e-014 1.82882e-014
lhumerus -43.9407 28.8146 69.7003
lradius 38.581
lwrist 172.135
lhand -23.0457 -22.0648
lfingers 7.12502
lthumb 3.39892 7.88784
rfemur -12.5338 -0.563655 11.5389
rtibia 31.4619
rfoot -13.7916 -16.0943
rtoes 11.6899
lfemur -8.16648 -4.6205 -23.5959
ltibia 22.0778
lfoot -15.6038 7.66571
ltoes 3.55713
280
root 16.2276 18.2815 -15.2315 -5.50083 -56.8709 8.54129
lowerback 0.152307 1.26052 -4.15512
upperback -0.13087 1.67123 0.565445
thorax -0.355627 0.845665 2.89996
lowerneck -7.88192 2.95367 -2.02515
upperneck 12.8875 3.90309 2.33202
head 5.07933 1.94841 1.31073
rclavicle -1.63252e-014 1.03368e-014
rhumerus -39.9508 -43.7677 -56.2436
rradius 12.095
rwrist 37.5945
rhand -30.8647 38.9431
rfingers 7.12502
rthumb -4.15249 9.00381
lclavicle -1.63252e-014 1.03368e-014
lhumerus -44.0982 29.4625 69.2287
lradius 38.4584
lwrist 172.104
lhand -22.4595 -21.1634
lfingers 7.12502
lthumb 3.96507 8.77943
rfemur -11.6093 -1.08762 11.091
rtibia 31.0953
rfoot -14.4278 -16.4723
rtoes 14.5789
lfemur -8.08091 -4.53578 -23.7556
ltibia 22.0385
lfoot -15.8121 8.15551
ltoes 5.57304
